<?xml version="1.0" encoding="UTF-8"?>
<svg width="540px" height="707px" viewBox="0 0 540 707" version="1.1" xmlns="http://www.w3.org/2000/svg" xmlns:xlink="http://www.w3.org/1999/xlink">
    <!-- Generator: Sketch 59.1 (86144) - https://sketch.com -->
    <title>Group 2</title>
    <desc>Created with Sketch.</desc>
    <defs>
        <radialGradient cx="27.8210614%" cy="21.9562789%" fx="27.8210614%" fy="21.9562789%" r="120.224719%" gradientTransform="translate(0.278211,0.219563),scale(1.000000,0.831776),rotate(90.000000),translate(-0.278211,-0.219563)" id="radialGradient-1">
            <stop stop-color="#000000" offset="0%"></stop>
            <stop stop-color="#FF0000" offset="100%"></stop>
        </radialGradient>
    </defs>
    <g id="Page-1" stroke="none" stroke-width="1" fill="none" fill-rule="evenodd">
        <g id="Group-2">
            <polygon id="Path-2" fill="#50E3C2" points="270 95.9208255 270 87.5050232 257.22658 46.0965483 213.684855 46.0965483 193.052684 0 156.136617 0 114.267237 46.0965483 91.1249263 113.258174 59.5247252 148.501122 48.5094946 168.429696 59.5247252 184.994222 35.570876 271.35706 20.8976684 368.126642 3.74700271e-15 389.530608 91.1249263 418 91.1249263 368.126642 69.6080212 274 135 219.714379 114.267237 95.9208255 174.7746 70.2926902 174.7746 139.534115 270 139.534115"></polygon>
            <path d="M291,44.9649914 L342.226221,30.2807131 L423.399804,37.6228522 L454.586723,119.78082 L467.857975,154.106744 L484,178 C484,147.713202 484,132.569802 484,132.569802 C484,132.569802 474.195574,103.368199 454.586723,44.9649914 L440.515362,19 L307.783843,19 L291,44.9649914 Z" id="Path-3" fill="#50E3C2"></path>
            <path d="M291.672076,68.2679766 C291.672076,68.2679766 291.672076,60.3955666 291.672076,44.6507464 L342.877189,30 L424.017325,30 L484.592551,166.25762 L509,208.832802 C492.728367,219.222718 484.592551,224.417676 484.592551,224.417676 C484.592551,224.417676 464.400809,224.417676 424.017325,224.417676 L388.132313,232.026978 L355.117818,279.613511 L291.672076,441.595115 L320.524985,562.441059 L371.940165,621.469938 C326.001852,684.789934 299.245822,712.951924 291.672076,705.955909 C284.098329,698.959893 258.203382,665.90709 213.987236,606.797498 L130.429052,621.469938 L86,606.797498 L110.478135,594.55345 C104.223266,549.397351 104.223266,526.819302 110.478135,526.819302 C116.733004,526.819302 135.710046,518.70081 167.409261,502.463827 L201.241313,346.058621 L248.699295,166.25762 C277.347816,100.931191 291.672076,68.2679766 291.672076,68.2679766 Z" id="Path-4" fill="#BD10E0"></path>
            <path d="M293.156709,137.340029 C284.018535,137.340029 246.391153,137.340029 180.274561,137.340029 L180.274561,52 L114.774517,75.0358401 L96.0903004,104.295279 C123.089363,168.895663 132.953165,204.547315 125.681706,211.250235 C118.410246,217.953155 97.1830112,235.411438 62,263.625085 L62,311.430279 L81.1452038,390 L138.996273,345.259373 L229.674195,390 L317,292.827687 C310.242646,189.169248 302.294882,137.340029 293.156709,137.340029 Z" id="Path-5" fill="#202323"></path>
            <polygon id="Path-6" fill="#D0021B" points="54 366.133723 90.2244525 464.235777 72.1122262 541.761821 90.2244525 623 141.099265 605.910578 118.741542 532.704255 183.444557 493.363143 214 380.815709 183.444557 348.15108 150.490187 317 90.2244525 348.852891"></polygon>
            <polygon id="Path-7" fill="#50E3C2" points="239.728312 642 248.226371 623.115387 270 607.241728 259.760264 519.861677 217.662978 481 178.607222 481 158 534.086302 166.304403 578.011945 178.607222 607.241728 166.304403 623.115387 214 615.79255"></polygon>
            <path d="M297.175778,60 L343.687783,60 L387.906444,83.6696452 C405.302148,128.736255 414,151.26956 414,151.26956 C414,151.26956 385.166933,198.569012 376.74379,198.569012 C368.320646,198.569012 343.687783,208.730626 343.687783,208.730626 C343.687783,208.730626 336.13992,244.622095 328.563638,244.622095 C323.512783,244.622095 308.390532,254.41473 283.196884,274 L236,264.854263 L259.973562,208.730626 L236,177.209989 L247.901526,141.520557 L297.175778,60 Z" id="Path-8" fill="url(#radialGradient-1)"></path>
            <path d="M463.191823,208.966087 L463.191823,245.949324 L494.042124,295.646347 L532.587988,295.646347 L532.587988,376.141445 L540,426.042843 L463.191823,502.518551 C490.533659,583.299414 500.817092,626.65895 494.042124,632.59716 C483.879672,641.504474 443.139126,674.652854 443.139126,674.652854 C443.139126,674.652854 433.181937,707 423.37337,707 C416.834325,707 374.709868,673.608102 297,606.824307 L342.750884,245.949324 L454.511968,199 L463.191823,208.966087 Z" id="Path-9" fill="#F5A623"></path>
            <path d="M418.487583,237 L454.62122,297.775873 L508.550191,367.98749 C517.149936,401.258933 517.149936,417.894655 508.550191,417.894655 C495.650573,417.894655 423.377418,457.568426 423.377418,469.333516 C423.377418,477.176909 431.152852,507.915505 446.70372,561.549303 C454.506841,602.60107 454.506841,623.126953 446.70372,623.126953 C434.999038,623.126953 376.401654,642 376.401654,642 C376.401654,642 349.793465,635.708984 296.577087,623.126953 L246,461.9583 L259.332071,398.309733 L324.43332,325.730045 L397.728416,246.581526 L418.487583,237 Z" id="Path-10" fill="#171D1D"></path>
        </g>
    </g>
</svg>